<?xml version="1.0" encoding="UTF-8"?><svg id="Layer_2" xmlns="http://www.w3.org/2000/svg" viewBox="0 0 29.93 94.48"><defs><style>.cls-1{fill:#bed9f7;}</style></defs><g id="Layer_1-2"><g><path class="cls-1" d="M23.63,76.41c-.1,.77-.18,1.53-.23,2.3-.05,.77-.05,1.54-.03,2.31,.05,1.54,.26,3.08,.68,4.55,.41,1.47,1.05,2.88,1.91,4.11,.85,1.24,1.94,2.29,3.15,3.12l-1.01,.4,.06-.57,.56,.77c-2.33-.2-4.68-.38-7.03-.68-2.35-.3-4.71-.72-7.04-1.36-.58-.16-1.16-.34-1.73-.53-.57-.19-1.14-.4-1.71-.62l-.05-.02h-.03s-.06-.03,.03,0h-.01s-.03-.01-.03-.01c-.01,0,0,0,.02,0h.04c.05,.03,.1,.04,.14,.04,.11,.01,.29,.03,.55-.08,.06-.03,.13-.06,.19-.1,.06-.04,.12-.09,.18-.15,.06-.06,.1-.11,.14-.17,.04-.06,.07-.11,.09-.17,.09-.21,.1-.36,.1-.45,0-.1-.01-.16-.03-.21-.03-.1-.06-.16-.1-.22-.05-.06-.11-.14-.24-.22-.03-.02-.07-.04-.11-.06-.03-.01,0,0,0,0h.03s.1,.05,.1,.05l.39,.16c.53,.2,1.06,.4,1.6,.58,2.14,.74,4.37,1.31,6.62,1.83,2.25,.52,4.54,.96,6.84,1.43l.86,.17,.43,.09,.11,.02h.01c-.05,0,0,0-.01,0h.01s.01,0,0,0c-.02,0-.04,0-.05,0-.01,0-.03,0-.04,0-.06,0-.17,.04-.26,.12-.09,.08-.14,.19-.16,.26-.03,.13,0,.15,0,.17,.01,.02,.01,.03,.06,.07,.05,.04,0,0-.02-.02l-.08-.08-.17-.16c-.23-.21-.45-.43-.66-.65-.84-.9-1.54-1.92-2.08-3-1.08-2.17-1.53-4.56-1.63-6.9-.03-.59-.03-1.18-.01-1.76,.01-.59,.04-1.17,.09-1.76,.05-.58,.11-1.17,.18-1.75l.06-.44,.03-.22c0-.07-.01-.14-.05-.21-.08-.12-.21-.21-.35-.24-.07-.01-.15-.01-.21,.03-.06,.04-.09,.11-.11,.18Zm0,0c0-.07,.04-.15,.1-.19,.06-.04,.14-.05,.21-.03,.14,.03,.28,.12,.36,.24,.04,.06,.06,.14,.06,.21l-.03,.22-.05,.44c-.07,.58-.12,1.17-.15,1.75-.03,.58-.04,1.17-.04,1.75,.01,.58,.04,1.17,.1,1.75,.05,.58,.14,1.16,.25,1.73,.11,.57,.25,1.13,.42,1.69,.17,.55,.38,1.09,.61,1.61,.24,.52,.51,1.02,.82,1.5,.61,.96,1.36,1.81,2.21,2.53,.21,.18,.43,.35,.66,.52l.17,.12,.09,.06s.04,.02,.15,.11c.15,.15,.23,.29,.29,.44,.05,.16,.1,.33,.04,.61-.03,.14-.12,.31-.27,.44-.15,.13-.33,.19-.46,.21-.03,0-.06,0-.1,0-.03,0-.07,0-.11,0h-.04s.02,0-.04,0h-.01s-.11,0-.11,0l-.44-.04-.88-.08c-2.34-.19-4.69-.41-7.04-.77-2.35-.35-4.7-.85-7.01-1.58-.58-.19-1.15-.39-1.72-.6l-.43-.16-.1-.04-.08-.03c-.07-.03-.14-.07-.21-.1-.25-.15-.43-.34-.56-.52-.13-.19-.22-.38-.29-.62-.03-.12-.06-.26-.06-.43,0-.17,.01-.39,.14-.67,.04-.07,.07-.14,.12-.22,.05-.07,.11-.14,.18-.21,.07-.07,.14-.13,.22-.18,.08-.05,.16-.1,.24-.13,.33-.13,.59-.12,.77-.1,.08,.01,.16,.03,.25,.05l.06,.02h.05s.03,.02,.03,.02l.15,.06c.52,.21,1.05,.41,1.58,.6,.53,.19,1.07,.37,1.61,.54,4.34,1.37,8.93,2.22,13.54,3.15l.7,.14-.14,.62-.12,.56-.24,1.06-.78-.67c-1.23-1.06-2.25-2.33-3.02-3.72-.77-1.39-1.28-2.9-1.6-4.43-.31-1.53-.43-3.08-.43-4.63,0-.77,.04-1.55,.1-2.32,.06-.77,.14-1.54,.25-2.3Z"/><path class="cls-1" d="M20.39,.04c-1.87,1.26-3.63,2.68-5.26,4.24-1.63,1.56-3.11,3.27-4.46,5.07-2.69,3.62-4.79,7.66-6.32,11.88-1.54,4.23-2.48,8.65-2.95,13.11-.46,4.46-.42,8.96,.06,13.4,.48,4.44,1.43,8.83,2.78,13.06,.68,2.12,1.46,4.21,2.35,6.24,.89,2.03,1.9,4.01,3,5.92,2.22,3.82,4.89,7.38,7.99,10.48,1.55,1.56,3.21,3,4.96,4.3,.88,.65,1.78,1.27,2.71,1.85,.46,.29,.93,.57,1.41,.84,.24,.14,.48,.27,.72,.4l.36,.19,.05,.02s-.05-.02,0,0c.03,.01-.06-.03-.08-.04-.03-.01-.06-.02-.1-.03-.07-.02-.19-.04-.33-.02-.15,.01-.34,.07-.5,.19-.17,.12-.29,.27-.36,.41-.07,.14-.1,.27-.1,.37-.02,.21,.03,.36,.09,.49,.07,.13,.16,.23,.25,.3,.02,.02,.05,.03,.07,.05,.04,.02,.02,0,0,0l-.09-.05-.38-.21-.38-.21c-.51-.29-1.01-.58-1.5-.89-.99-.61-1.95-1.27-2.89-1.96-1.87-1.38-3.61-2.93-5.23-4.59-3.23-3.33-5.94-7.13-8.13-11.18-2.19-4.05-3.86-8.36-5.08-12.76-1.21-4.41-1.95-8.94-2.22-13.49-.28-4.55-.07-9.12,.61-13.61,.68-4.49,1.83-8.91,3.55-13.1,1.72-4.19,3.99-8.15,6.81-11.68,1.41-1.76,2.96-3.41,4.64-4.92,.84-.76,1.71-1.48,2.61-2.16,.45-.34,.91-.67,1.37-.99l.35-.24c.06-.04,.12-.07,.17-.12,.05-.05,.08-.12,.07-.19-.02-.14-.11-.26-.22-.34-.11-.08-.27-.14-.39-.05Zm0,0c.12-.08,.28-.03,.39,.05,.11,.08,.21,.2,.22,.34,0,.07-.02,.15-.07,.19-.05,.05-.12,.08-.17,.12l-.35,.24c-.46,.32-.92,.65-1.37,.99-.9,.68-1.76,1.41-2.6,2.16-1.67,1.52-3.19,3.19-4.58,4.96-2.77,3.55-4.96,7.55-6.55,11.75-.8,2.1-1.44,4.26-1.95,6.45-.51,2.19-.89,4.4-1.15,6.63-.51,4.45-.52,8.96-.08,13.4,.44,4.44,1.35,8.83,2.68,13.08,1.32,4.25,3.09,8.34,5.29,12.18,2.2,3.83,4.85,7.4,7.95,10.51,1.55,1.56,3.21,2.99,4.97,4.28,.88,.65,1.79,1.26,2.71,1.83,.46,.29,.94,.56,1.41,.83l.36,.2,.36,.19,.09,.05,.09,.05c.05,.03,.11,.07,.16,.1,.21,.16,.4,.37,.53,.62,.13,.25,.21,.55,.18,.9-.02,.18-.06,.37-.16,.58-.1,.2-.27,.42-.49,.57-.22,.16-.48,.24-.7,.26-.22,.02-.4,0-.54-.03-.08-.02-.13-.04-.2-.06-.06-.02-.18-.07-.18-.08l-.09-.04-.05-.03-.38-.21c-.25-.14-.51-.28-.76-.43-.5-.29-1-.59-1.5-.9-.99-.62-1.94-1.28-2.87-1.98-1.86-1.4-3.6-2.95-5.21-4.61-3.23-3.33-5.95-7.11-8.16-11.15-1.11-2.02-2.08-4.11-2.93-6.24-.85-2.13-1.58-4.3-2.2-6.5C1.26,56.94,.48,52.41,.16,47.87c-.32-4.54-.17-9.12,.46-13.61,.31-2.25,.74-4.48,1.3-6.68,.56-2.2,1.26-4.35,2.08-6.46,1.65-4.21,3.84-8.22,6.58-11.81C13.33,5.71,16.63,2.54,20.39,.04Z"/></g></g></svg>