<?xml version="1.0" encoding="UTF-8"?><svg id="Layer_2" xmlns="http://www.w3.org/2000/svg" viewBox="0 0 29.93 94.48"><defs><style>.cls-1{fill:#bed9f7;}</style></defs><g id="Layer_1-2"><g><path class="cls-1" d="M6.2,76.23c-.06-.04-.14-.04-.21-.03-.14,.03-.27,.12-.35,.24-.04,.06-.06,.13-.05,.21l.03,.22,.06,.44c.07,.58,.13,1.16,.18,1.75,.05,.58,.08,1.17,.09,1.76,.02,.59,.02,1.18-.01,1.76-.1,2.35-.54,4.73-1.63,6.9-.54,1.08-1.24,2.1-2.08,3-.21,.22-.43,.44-.66,.65l-.17,.16-.08,.08s-.08,.07-.02,.02c.05-.04,.05-.05,.06-.07,0-.02,.03-.04,0-.17-.01-.07-.06-.17-.16-.26-.09-.08-.2-.12-.26-.12-.01,0-.03,0-.04,0-.02,0-.03,0-.05,0-.01,0,0,0,0,0h.01s.04,0-.01,0h.01s.11-.02,.11-.02l.43-.09,.86-.17c2.3-.47,4.59-.91,6.84-1.43,2.25-.52,4.47-1.09,6.62-1.83,.54-.18,1.07-.37,1.6-.58l.39-.16,.1-.04h.03s.03-.02,0,0c-.04,.02-.08,.04-.11,.06-.13,.08-.19,.16-.24,.22-.05,.07-.07,.12-.1,.22-.01,.05-.02,.11-.03,.21,0,.1,0,.24,.1,.45,.03,.06,.06,.11,.09,.17,.04,.06,.08,.11,.14,.17,.06,.05,.12,.1,.18,.15,.07,.04,.13,.08,.19,.1,.26,.11,.44,.09,.55,.08,.05,0,.09-.01,.14-.03h.04s.03-.02,.02-.02h-.03s-.01,.01-.01,.01c.09-.03,.02,0,.03-.01h-.03s-.05,.03-.05,.03c-.57,.22-1.14,.43-1.71,.62-.58,.19-1.15,.36-1.73,.53-2.33,.64-4.68,1.06-7.04,1.36-2.35,.3-4.7,.48-7.03,.68l.56-.77,.06,.57-1.01-.4c1.22-.83,2.3-1.88,3.15-3.12,.86-1.23,1.49-2.64,1.91-4.11,.42-1.47,.62-3.01,.68-4.55,.02-.77,.02-1.54-.03-2.31-.05-.77-.13-1.54-.23-2.3-.01-.07-.04-.15-.11-.18Zm.36,2.49c.06,.77,.1,1.54,.1,2.32,0,1.55-.12,3.1-.43,4.63-.31,1.53-.83,3.03-1.6,4.43-.77,1.39-1.79,2.67-3.02,3.72l-.78,.67-.24-1.06-.12-.56-.14-.62,.7-.14c4.61-.93,9.2-1.78,13.54-3.15,.54-.17,1.08-.35,1.61-.54,.53-.19,1.06-.39,1.58-.6l.15-.06h.03s.05-.02,.05-.02l.06-.02c.09-.03,.17-.04,.25-.05,.18-.02,.44-.03,.77,.1,.08,.03,.16,.08,.24,.13,.08,.05,.15,.11,.22,.18,.07,.07,.12,.14,.18,.21,.05,.07,.09,.14,.12,.22,.12,.28,.14,.5,.14,.67,0,.17-.03,.3-.06,.43-.06,.24-.16,.43-.29,.62-.13,.18-.3,.37-.56,.52-.06,.04-.13,.07-.21,.1l-.08,.03-.1,.04-.43,.16c-.57,.21-1.14,.41-1.72,.6-2.31,.73-4.66,1.23-7.01,1.58-2.35,.35-4.7,.57-7.04,.77l-.88,.08-.44,.04h-.11s-.01,0-.01,0c-.06,0-.02,0-.04,0h-.04s-.07,0-.11,0c-.03,0-.06,0-.1,0-.13-.02-.31-.08-.46-.21-.15-.13-.24-.3-.27-.44-.06-.28-.01-.45,.04-.61,.06-.16,.13-.29,.29-.44,.11-.1,.11-.09,.15-.11l.09-.06,.17-.12c.22-.16,.44-.34,.66-.52,.85-.72,1.6-1.57,2.21-2.53,.31-.48,.58-.98,.82-1.5,.24-.52,.44-1.06,.61-1.61,.18-.55,.31-1.12,.42-1.69,.11-.57,.2-1.15,.25-1.73,.06-.58,.09-1.16,.1-1.75,0-.59,0-1.17-.04-1.75-.03-.59-.08-1.17-.15-1.75l-.05-.44-.03-.22c0-.07,.01-.15,.06-.21,.08-.12,.22-.21,.36-.24,.07-.01,.15,0,.21,.03,.06,.04,.09,.11,.1,.19,.11,.76,.2,1.53,.25,2.3Z"/><path class="cls-1" d="M9.14,.09c-.11,.08-.21,.2-.22,.34,0,.07,.02,.14,.07,.19,.05,.05,.12,.08,.17,.12l.35,.24c.47,.32,.92,.65,1.37,.99,.9,.68,1.77,1.4,2.61,2.16,1.68,1.51,3.23,3.16,4.64,4.92,2.83,3.53,5.1,7.49,6.81,11.68,1.72,4.19,2.87,8.61,3.55,13.1,.68,4.49,.88,9.06,.61,13.61-.28,4.55-1.01,9.08-2.22,13.49-1.22,4.41-2.89,8.72-5.08,12.76-2.19,4.05-4.89,7.85-8.13,11.18-1.62,1.66-3.36,3.21-5.23,4.59-.93,.69-1.9,1.35-2.89,1.96-.5,.31-1,.6-1.5,.89l-.38,.21-.38,.21-.09,.05s-.04,.02,0,0c.02-.01,.05-.03,.07-.05,.1-.07,.19-.17,.25-.3,.06-.13,.11-.28,.09-.49,0-.11-.03-.23-.1-.37-.07-.14-.19-.3-.36-.41-.16-.12-.35-.18-.5-.19-.15-.02-.26,0-.33,.02-.04,0-.06,.02-.1,.03-.03,0-.11,.05-.08,.04,.05-.03-.02,0,0,0l.05-.02,.36-.19c.24-.13,.48-.26,.72-.4,.47-.27,.94-.55,1.41-.84,.93-.58,1.83-1.2,2.71-1.85,1.76-1.3,3.42-2.74,4.96-4.3,3.1-3.11,5.77-6.66,7.99-10.48,1.11-1.91,2.12-3.89,3-5.92,.89-2.03,1.67-4.12,2.35-6.24,1.36-4.24,2.3-8.62,2.78-13.06,.48-4.44,.52-8.94,.06-13.4-.47-4.46-1.41-8.88-2.95-13.11-1.53-4.23-3.63-8.26-6.32-11.88-1.35-1.81-2.83-3.51-4.46-5.07C13.17,2.72,11.41,1.3,9.54,.04c-.12-.08-.28-.03-.39,.05Zm10.19,9.21c2.74,3.59,4.93,7.6,6.58,11.81,.82,2.11,1.52,4.27,2.08,6.46,.56,2.2,.99,4.43,1.3,6.68,.63,4.5,.78,9.07,.46,13.61-.32,4.55-1.1,9.07-2.34,13.47-.62,2.2-1.36,4.37-2.2,6.5-.85,2.13-1.82,4.22-2.93,6.24-2.21,4.04-4.93,7.82-8.16,11.15-1.62,1.66-3.35,3.21-5.21,4.61-.93,.7-1.89,1.36-2.87,1.98-.49,.31-.99,.61-1.5,.9-.25,.15-.51,.29-.76,.43l-.38,.21-.05,.03-.09,.04s-.12,.06-.18,.08c-.07,.02-.12,.04-.2,.06-.14,.03-.33,.05-.54,.03-.21-.02-.48-.11-.7-.26-.22-.16-.39-.37-.49-.57-.1-.2-.14-.4-.16-.58-.03-.35,.05-.65,.18-.9,.13-.25,.32-.46,.53-.62,.05-.04,.11-.07,.16-.1l.09-.05,.09-.05,.36-.19,.36-.2c.48-.26,.95-.54,1.41-.83,.93-.57,1.84-1.18,2.71-1.83,1.76-1.3,3.42-2.73,4.97-4.28,3.1-3.11,5.75-6.67,7.95-10.51,2.2-3.83,3.98-7.93,5.29-12.18,1.33-4.25,2.23-8.64,2.68-13.08,.44-4.45,.43-8.95-.08-13.4-.26-2.23-.64-4.44-1.15-6.63-.51-2.19-1.15-4.34-1.95-6.45-1.59-4.2-3.78-8.2-6.55-11.75-1.39-1.77-2.91-3.45-4.58-4.96-.83-.76-1.7-1.48-2.6-2.16-.45-.34-.9-.67-1.37-.99l-.35-.24c-.06-.04-.12-.08-.17-.12-.05-.05-.08-.12-.07-.19,.02-.14,.11-.26,.22-.34,.11-.08,.27-.13,.39-.05,3.76,2.5,7.06,5.67,9.8,9.26Z"/></g></g></svg>