<?xml version="1.0" encoding="UTF-8"?>
<svg width="2012px" height="333px" viewBox="0 0 2012 333" version="1.1" xmlns="http://www.w3.org/2000/svg" xmlns:xlink="http://www.w3.org/1999/xlink">
    <title>Group 9</title>
    <g id="Page-1" stroke="none" stroke-width="1" fill="none" fill-rule="evenodd">
        <g id="Artboard" transform="translate(-9510.000000, -2703.000000)" fill="#1D2E3B" fill-rule="nonzero">
            <g id="Group-9" transform="translate(9510.161538, 2703.000000)">
                <g id="keap">
                    <path d="M168.58523,234.029748 L145.470527,257.606596 C141.721972,261.708002 136.976019,261.366911 133.227464,257.606596 L50.3021157,174.247381 L50.3021157,251.799736 C50.3021157,257.265505 47.2517396,260.33532 41.8076077,260.33532 L8.49450797,260.33532 C3.05037615,260.33532 0,257.265505 0,251.799736 L0,8.53558427 C0,3.0698154 3.06699945,0 8.49450797,0 L41.7992961,0 C47.2517396,0 50.3021157,3.0698154 50.3021157,8.53558427 L50.3021157,88.1428025 L162.800321,88.1428025 C168.244452,88.1428025 171.294829,91.2292565 171.294829,96.6867061 L171.294829,130.504591 C171.294829,135.97036 168.236141,139.040175 162.800321,139.040175 L86.3331256,139.040175 L168.58523,221.717209 C172.317162,225.494163 172.317162,229.936661 168.58523,234.029748 L168.58523,234.029748 Z M353.145455,173.90629 C353.145455,177.325515 352.804677,181.077512 352.463899,184.496737 C351.782344,189.962506 348.382878,192.35014 343.296148,192.35014 L231.811964,192.35014 C237.588562,207.383085 252.200446,217.29135 270.552572,217.29135 C283.809657,217.29135 294.008053,212.166672 301.480228,203.972179 C304.888005,199.862453 308.619937,198.839181 313.041736,201.584544 L338.874349,217.29135 C343.628614,220.361166 344.991725,224.462572 341.583947,228.913389 C325.958042,250.768145 300.117117,264.103955 269.871017,264.103955 C218.214102,264.103955 180.828293,225.161392 180.828293,174.596791 C180.828293,123.350008 216.518525,84.4074323 267.161419,84.4074323 C318.14509,84.3824866 353.145455,122.642869 353.145455,173.90629 L353.145455,173.90629 Z M303.516583,155.795211 C298.754006,139.389585 285.164456,130.51291 267.485573,130.51291 C248.792668,130.51291 235.203118,139.389585 230.781319,155.795211 L303.516583,155.795211 Z M521.381596,152.367667 L521.381596,251.791417 C521.381596,257.265505 518.331219,260.327001 512.887088,260.327001 L480.604633,260.327001 C475.160501,260.327001 472.110125,257.265505 472.110125,251.791417 L472.110125,241.883151 C459.193818,257.248866 443.892067,264.095636 424.858385,264.095636 C387.472576,264.095636 362.662296,242.573651 362.662296,210.111809 C362.662296,176.285605 387.131798,154.755301 423.503586,154.755301 L472.110125,154.755301 L472.110125,150.994985 C472.110125,138.690766 460.548617,130.496272 443.55129,130.496272 C432.671338,130.496272 422.148787,134.605998 417.38621,140.412857 C414.319211,144.173173 411.942078,146.560807 407.187814,146.560807 L375.578603,146.560807 C369.793693,146.560807 366.402539,143.482672 367.424872,138.366313 C373.883026,105.912791 401.760305,84.3824866 442.878046,84.3824866 C490.113162,84.3824866 521.381596,111.71965 521.381596,152.367667 L521.381596,152.367667 Z M472.101813,196.443228 L472.101813,190.636368 L431.649004,190.636368 C418.051142,190.636368 412.615322,197.80759 412.615322,207.383085 C412.615322,216.259759 419.746719,223.439301 437.084825,223.439301 C458.163173,223.439301 472.101813,212.507763 472.101813,196.443228 L472.101813,196.443228 Z M718.841504,174.588471 C718.841504,224.470892 683.824515,264.095636 637.611732,264.095636 C618.237272,264.095636 601.913188,256.924414 591.390637,244.969605 L591.390637,324.235732 C591.390637,329.701501 588.33195,332.771317 582.896129,332.771317 L549.574718,332.771317 C544.138898,332.771317 541.088522,329.693182 541.088522,324.235732 L541.088522,96.6867061 C541.088522,91.2126179 544.147209,88.1428025 549.574718,88.1428025 L581.865485,88.1428025 C587.301305,88.1428025 590.359993,91.2292565 590.359993,96.6867061 L590.359993,106.253881 C601.239945,92.2525283 617.896494,84.3991199 636.913553,84.3991199 C682.810494,84.3824866 718.841504,123.682779 718.841504,174.588471 Z M668.539388,174.588471 C668.539388,151.352714 652.215304,133.582726 629.790468,133.582726 C606.002521,133.582726 589.69506,151.352714 589.69506,174.588471 C589.69506,197.142047 606.010833,214.895397 629.790468,214.895397 C652.215304,214.895397 668.539388,197.133728 668.539388,174.588471 L668.539388,174.588471 Z" id="Shape"></path>
                </g>
                <g id="hubspot-seeklogo.com" transform="translate(964.841504, 15.628976)">
                    <polygon id="Path" points="0 56 36.2499387 56 36.2499387 137.069229 112.703358 137.069229 112.703358 56 149 56 149 255 112.703358 255 112.703358 172.228117 36.2499387 172.228117 36.2499387 255 0 255"></polygon>
                    <path d="M265.313658,189.964605 C265.313658,206.679262 251.704741,220.280685 235.005124,220.280685 C218.299358,220.280685 204.698639,206.679262 204.698639,189.964605 L204.698639,104 L170,104 L170,189.964605 C170,225.82831 199.162843,255 235.005124,255 C270.839206,255 300,225.82831 300,189.964605 L300,104 L265.313658,104 L265.313658,189.964605" id="Path"></path>
                    <path d="M395.679441,105.50983 C378.458503,105.50983 366.437886,110.491064 354.82944,121.849586 L354.82944,56 L320,56 L320,178.037172 C320,223.716541 353.133594,255 390.358135,255 C431.741292,255 468,223.158528 468,180.256959 C468,137.899094 434.564968,105.50983 395.679441,105.50983 L395.679441,105.50983 Z M396.544795,222.882588 C372.94444,222.882588 354.89711,203.235635 354.89711,180.256959 C354.89711,157.274194 372.94444,137.62111 396.544795,137.62111 C416.542245,137.62111 434.599828,157.274194 434.599828,180.256959 C434.599828,203.235635 416.542245,222.882588 396.544795,222.882588 L396.544795,222.882588 Z" id="Shape"></path>
                    <path d="M525.761219,114.207766 C525.761219,96.7356135 537.454853,91.1960121 550.256393,91.1960121 C560.562577,91.1960121 574.200697,98.9559562 583.100932,108.381669 L605.922944,81.7764386 C594.517077,66.5348608 571.41552,56 552.484535,56 C514.620509,56 487.338102,77.8964666 487.338102,114.207766 C487.338102,181.554749 570.578939,160.206717 570.578939,197.909568 C570.578939,209.537205 559.168961,219.801942 546.091987,219.801942 C525.483729,219.801942 518.799303,209.823701 509.337921,199.28884 L484,225.33745 C500.156085,245.017667 520.192919,255 544.137224,255 C580.046487,255 609,232.82727 609,198.177646 C609,123.349029 525.761219,146.632954 525.761219,114.207766" id="Path"></path>
                    <path d="M700.35716,103 C663.137236,103 630,134.216967 630,179.83627 L630,302 L664.826907,302 L664.826907,235.939461 C676.437243,247.272347 688.451541,252.254082 705.678393,252.254082 C744.56133,252.254082 778,219.918725 778,177.62602 C778,134.784325 741.731541,103 700.35716,103 L700.35716,103 Z M706.545785,220.196281 C682.947807,220.196281 664.898677,200.553021 664.898677,177.62602 C664.898677,154.678611 682.947807,135.05576 706.545785,135.05576 C726.538857,135.05576 744.59824,154.678611 744.59824,177.62602 C744.59824,200.553021 726.538857,220.196281 706.545785,220.196281 L706.545785,220.196281 Z" id="Shape"></path>
                    <path d="M1034.74781,222.917789 C1014.16726,222.917789 1008.32467,214.072874 1008.32467,200.517614 L1008.32467,140.514303 L1040.31512,140.514303 L1040.31512,110.100212 L1008.32467,110.100212 L1008.32467,70 L973,85.7583216 L973,207.984339 C973,239.235553 994.694012,255 1024.45138,255 C1028.90317,255 1035.03132,254.714153 1038.37375,253.895407 L1047,222.37468 C1043.10494,222.642151 1038.6552,222.917789 1034.74781,222.917789" id="Path"></path>
                    <path d="M943.357435,142.504286 C936.708516,131.071944 927.355922,121.906887 915.663137,115.007075 C906.9252,109.923539 897.86462,106.697097 887.654364,105.31142 L887.654364,68.9858779 C897.86462,64.6533428 904.201104,55.0638078 904.201104,43.8763571 C904.201104,28.6277924 891.965134,16.2709858 876.71918,16.2709858 C861.460974,16.2709858 849.010588,28.6277924 849.010588,43.8763571 C849.010588,55.0638078 854.981546,64.6533428 865.191802,68.9858779 L865.191802,105.327746 C857.023597,106.507306 848.553169,109.052135 840.817879,112.962232 C825.01853,100.970722 773.211693,61.630976 742.905612,38.6540502 C743.624414,36.0643248 744.17781,33.3950097 744.17781,30.5787598 C744.17781,13.6894234 730.491983,0 713.585842,0 C696.6797,0 683,13.6894234 683,30.5787598 C683,47.4660553 696.693995,61.1595603 713.600136,61.1595603 C719.366889,61.1595603 724.700726,59.4738919 729.303509,56.7025387 L735.699213,61.5513864 L823.580926,124.831297 C818.935259,129.094446 814.608153,133.943294 811.146876,139.383962 C804.132431,150.475497 799.846165,162.679247 799.846165,175.991129 L799.846165,178.768605 C799.846165,188.113249 801.62275,196.935458 804.64907,205.222987 C807.313946,212.459525 811.21018,219.038938 816.035547,224.987755 L786.868931,254.207369 C784.281652,253.254333 781.563682,252.731898 778.727273,252.731898 C772.413251,252.731898 766.491302,255.197137 762.025337,259.652118 C757.555287,264.119344 755.106867,270.051835 755.106867,276.365949 C755.108909,282.678022 757.569581,288.610514 762.037589,293.073658 C766.503555,297.538842 772.439797,300 778.757903,300 C785.07601,300 791.014294,297.538842 795.484344,293.073658 C799.944184,288.610514 802.406898,282.675982 802.406898,276.365949 C802.406898,273.923159 802.029118,271.53955 801.318484,269.274305 L831.465285,239.142472 C835.598397,241.995456 840.06232,244.397431 844.861141,246.468804 C854.326047,250.558488 864.773181,253.050257 876.206625,253.050257 L878.30177,253.050257 C890.942066,253.050257 902.865603,250.082991 914.074421,244.013768 C925.885645,237.599657 935.130011,228.828467 942.113825,217.630813 C949.134397,206.402547 953,193.996762 953,180.348154 L953,179.66654 C953,166.240374 949.889956,153.852956 943.357435,142.504286 L943.357435,142.504286 Z M906.522916,205.71277 C898.340417,214.800278 888.93473,220.398084 878.30177,220.398084 L876.54969,220.398084 C870.47663,220.398084 864.536303,218.720579 858.720542,215.669642 C852.165557,212.310549 847.182953,207.518843 843.104977,201.451661 C838.890183,195.496721 836.603086,188.994857 836.603086,182.101167 L836.603086,180.007347 C836.603086,173.22998 837.903872,166.803624 841.183406,160.734402 C844.689608,154.099888 849.425125,148.940845 855.72281,144.838916 C861.906141,140.765557 868.510135,138.767653 875.865603,138.767653 L876.54969,138.767653 C883.219029,138.767653 889.533051,140.081903 895.491756,143.128758 C901.562774,146.37765 906.522916,150.816304 910.368099,156.654921 C914.10301,162.495578 916.324762,168.795407 917.03948,175.658485 C917.151792,177.084977 917.20897,178.546162 917.20897,179.942042 C917.20897,189.256075 913.647633,197.882371 906.522916,205.71277 L906.522916,205.71277 Z" id="Shape"></path>
                </g>
            </g>
        </g>
    </g>
</svg>